<svg xmlns="http://www.w3.org/2000/svg" viewBox="0 0 1200 460" role="img">
  <defs>
    <radialGradient id="earth" cx="50%" cy="70%" r="70%">
      <stop offset="0" stop-color="#1b72e8"/>
      <stop offset=".58" stop-color="#0b315d"/>
      <stop offset="1" stop-color="#030b15"/>
    </radialGradient>
    <filter id="glow"><feGaussianBlur stdDeviation="5" result="b"/><feMerge><feMergeNode in="b"/><feMergeNode in="SourceGraphic"/></feMerge></filter>
  </defs>
  <rect width="1200" height="460" fill="#050d18"/>
  <circle cx="770" cy="430" r="390" fill="url(#earth)" opacity=".92"/>
  <path d="M410 310C520 200 680 150 850 160c115 7 218 48 304 115" fill="none" stroke="#6bd8ff" stroke-width="2" opacity=".58"/>
  <path d="M485 360C670 240 820 238 1105 330" fill="none" stroke="#b9ecff" stroke-width="1.6" opacity=".42"/>
  <g fill="#fff" filter="url(#glow)">
    <circle cx="560" cy="288" r="5"/><circle cx="680" cy="225" r="4"/><circle cx="790" cy="205" r="5"/><circle cx="905" cy="235" r="4"/><circle cx="1010" cy="290" r="5"/><circle cx="1120" cy="350" r="4"/>
  </g>
  <g stroke="#6bd8ff" stroke-width="1.2" opacity=".55">
    <path d="M560 288L680 225L790 205L905 235L1010 290L1120 350"/>
  </g>
</svg>
