<svg xmlns="http://www.w3.org/2000/svg" viewBox="0 0 512 512" role="img" aria-labelledby="distributors-title distributors-desc">
  <title id="distributors-title">Distributors and Retailers</title>
  <desc id="distributors-desc">Ice-blue line icon for distributors and retailers, showing storefront, box and global supply.</desc>
  <defs>
    <radialGradient id="distributors-bg" cx="50%" cy="38%" r="70%">
      <stop offset="0%" stop-color="#0b2a52"/>
      <stop offset="52%" stop-color="#071b34"/>
      <stop offset="100%" stop-color="#020b16"/>
    </radialGradient>
    <linearGradient id="distributors-stroke" x1="90" y1="70" x2="425" y2="430" gradientUnits="userSpaceOnUse">
      <stop offset="0%" stop-color="#eaf8ff"/>
      <stop offset="42%" stop-color="#7bdcff"/>
      <stop offset="100%" stop-color="#1f8cff"/>
    </linearGradient>
    <filter id="distributors-glow" x="-60%" y="-60%" width="220%" height="220%">
      <feGaussianBlur stdDeviation="4" result="blur"/>
      <feMerge>
        <feMergeNode in="blur"/>
        <feMergeNode in="SourceGraphic"/>
      </feMerge>
    </filter>
  </defs>
  <rect width="512" height="512" rx="104" fill="url(#distributors-bg)"/>
  <circle cx="256" cy="256" r="184" fill="none" stroke="#63caff" stroke-opacity=".10" stroke-width="2"/>
  <circle cx="256" cy="256" r="132" fill="none" stroke="#63caff" stroke-opacity=".08" stroke-width="1.5" stroke-dasharray="9 14"/>
  <path d="M72 390 C150 356 212 420 292 382 S410 346 448 376" fill="none" stroke="#2499ff" stroke-opacity=".22" stroke-width="3"/>
  <g fill="none" stroke="url(#distributors-stroke)" stroke-width="18" stroke-linecap="round" stroke-linejoin="round" filter="url(#distributors-glow)">
    
    <path d="M100 194h312l-28-70H128l-28 70z"/>
    <path d="M110 194v214h292V194"/>
    <path d="M142 194c0 28 22 50 50 50s50-22 50-50"/>
    <path d="M242 194c0 28 22 50 50 50s50-22 50-50"/>
    <path d="M342 194c0 28 22 50 50 50s50-22 50-50"/>
    <path d="M160 306h90v102h-90z"/>
    <path d="M292 306h70l42 36v66H292z"/>
    <path d="M362 306v42h42"/>
    <path d="M150 124h212"/>
    <circle cx="352" cy="112" r="52"/>
    <path d="M300 112h104M352 60c20 20 28 36 28 52s-8 32-28 52M352 60c-20 20-28 36-28 52s8 32 28 52" stroke-width="12"/>
    
  </g>
</svg>
